<svg width="256" height="256" viewBox="0 0 256 256" fill="none" xmlns="http://www.w3.org/2000/svg">
<rect x="8" y="8" width="240" height="240" rx="120" fill="white"/>
<rect x="8" y="8" width="240" height="240" rx="120" stroke="black" stroke-width="16"/>
<path d="M57.4797 174.6V82.6L46.0797 82V65H94.4797V81.2L87.8797 81.8C84.013 82.2 82.0797 84.3333 82.0797 88.2V180.4L93.4797 181V198H45.0797V181.8L51.6797 181.2C53.6797 180.933 55.1464 180.4 56.0797 179.6C57.013 178.667 57.4797 177 57.4797 174.6ZM187.208 86.2C185.741 83.6667 180.274 82.4 170.808 82.4C158.408 82.4 149.008 86.6 142.608 95C136.208 103.4 133.008 115.533 133.008 131.4C133.008 164.333 145.341 180.8 170.008 180.8C170.408 180.8 172.141 180.8 175.208 180.8C178.408 180.8 181.408 180.4 184.208 179.6C187.008 178.667 188.674 177.733 189.208 176.8C189.741 175.867 190.008 174.4 190.008 172.4V156.4L210.408 157.8V192.4C200.008 197.867 186.808 200.6 170.808 200.6C150.408 200.6 134.808 194.867 124.008 183.4C113.341 171.933 108.008 154.867 108.008 132.2C108.008 119.667 109.808 108.733 113.408 99.4C117.008 90.0667 121.874 82.8 128.008 77.6C140.008 67.6 154.274 62.6 170.808 62.6C184.141 62.6 196.674 65.3333 208.408 70.8V104.8L188.008 106.2V90.6C188.008 88.6 187.741 87.1333 187.208 86.2Z" fill="black"/>
</svg>
